<svg width="760" height="900" viewBox="0 0 760 900" fill="none" xmlns="http://www.w3.org/2000/svg">
  <rect width="760" height="900" rx="48" fill="#F5EDDD"/>
  <rect x="46" y="46" width="668" height="808" rx="36" fill="#EDE0C7"/>
  <path d="M156 790V326C156 206.706 252.706 110 372 110C491.294 110 588 206.706 588 326V790H156Z" fill="#DCC79B"/>
  <path d="M208 790V348C208 257.463 281.463 184 372 184C462.537 184 536 257.463 536 348V790H208Z" fill="#F7F1E4"/>
  <path d="M372 214C448.216 214 510 275.784 510 352V790H234V352C234 275.784 295.784 214 372 214Z" fill="#B6C084"/>
  <rect x="298" y="330" width="148" height="340" rx="74" fill="#F5E4D8"/>
  <circle cx="352" cy="132" r="56" fill="#A48E55" opacity="0.9"/>
  <circle cx="376" cy="120" r="46" fill="#EDE0C7"/>
  <g opacity="0.46" stroke="#F7F1E4" stroke-width="4">
    <path d="M250 312H494"/>
    <path d="M250 412H494"/>
    <path d="M250 512H494"/>
    <path d="M250 612H494"/>
    <path d="M290 272V708"/>
    <path d="M372 252V728"/>
    <path d="M454 272V708"/>
  </g>
  <g opacity="0.32">
    <circle cx="188" cy="210" r="82" fill="#F7F1E4"/>
    <circle cx="590" cy="630" r="76" fill="#F7F1E4"/>
  </g>
</svg>
